<?xml version="1.0" standalone="no"?>
<!DOCTYPE svg PUBLIC "-//W3C//DTD SVG 20010904//EN"
 "http://www.w3.org/TR/2001/REC-SVG-20010904/DTD/svg10.dtd">
<svg version="1.0" xmlns="http://www.w3.org/2000/svg"
 width="16.000000pt" height="16.000000pt" viewBox="0 0 16.000000 16.000000"
 preserveAspectRatio="xMidYMid meet">
<metadata>
Created by potrace 1.11, written by Peter Selinger 2001-2013
</metadata>
<g transform="translate(0.000000,16.000000) scale(0.001978,-0.001978)"
fill="#000000" stroke="none">
<path d="M0 4050 l0 -4040 555 0 555 0 0 105 0 105 -450 0 -450 0 0 3830 0
3830 450 0 450 0 0 105 0 105 -555 0 -555 0 0 -4040z"/>
<path d="M6970 7985 l0 -105 455 0 455 0 0 -3830 0 -3830 -455 0 -455 0 0
-105 0 -105 560 0 560 0 0 4040 0 4040 -560 0 -560 0 0 -105z"/>
<path d="M1840 5913 c-1 -738 -6 -884 -38 -956 -41 -93 -115 -141 -217 -142
-60 0 -81 5 -147 37 -42 20 -110 59 -152 87 -41 28 -80 51 -85 51 -6 0 -37
-39 -68 -86 -65 -97 -65 -97 13 -157 163 -126 342 -180 516 -157 192 26 338
149 384 324 28 106 35 311 32 1006 l-3 695 -117 3 -118 3 0 -708z"/>
<path d="M2731 5640 c-272 -575 -461 -986 -457 -995 5 -13 25 -15 128 -13
l122 3 150 318 150 317 406 0 406 0 149 -312 c82 -172 154 -316 160 -320 5 -4
61 -8 123 -8 82 0 114 3 118 13 2 7 -202 455 -453 995 l-458 982 -41 0 -40 0
-463 -980z m649 182 c79 -166 141 -305 138 -307 -3 -3 -134 -4 -291 -3 l-287
3 126 265 c69 146 135 285 145 309 11 24 21 42 23 40 2 -2 68 -140 146 -307z"/>
<path d="M4382 5628 l3 -993 115 0 115 0 3 428 c1 235 6 427 11 427 4 0 165
-168 358 -372 192 -205 374 -399 404 -430 l55 -58 136 0 c106 0 138 3 148 15
10 12 -28 57 -221 262 -129 136 -337 358 -463 493 -126 135 -247 263 -268 286
l-39 41 458 428 c252 235 459 436 461 446 3 18 -6 19 -145 19 l-148 0 -367
-345 c-202 -190 -370 -345 -373 -345 -3 0 -5 155 -5 345 l0 345 -120 0 -120 0
2 -992z"/>
<path d="M5925 6608 c-3 -7 -4 -454 -3 -993 l3 -980 570 0 570 0 0 115 0 115
-452 3 -453 2 0 360 0 360 455 0 455 0 0 115 0 115 -452 2 -453 3 -3 283 -2
282 460 0 460 0 0 115 0 115 -575 0 c-451 0 -577 -3 -580 -12z"/>
<path d="M6621 3404 c-233 -63 -383 -282 -352 -514 27 -198 98 -289 420 -538
168 -129 307 -269 345 -347 24 -48 30 -74 30 -130 1 -123 -61 -217 -184 -274
-46 -22 -69 -26 -145 -26 -81 0 -95 3 -143 29 -65 36 -171 146 -213 222 -18
31 -37 58 -44 60 -17 7 -189 -99 -193 -117 -4 -23 112 -191 176 -255 105 -104
217 -157 372 -176 279 -33 537 138 615 406 23 78 17 228 -13 308 -56 156 -187
298 -467 509 -250 189 -302 250 -312 370 -5 46 -1 66 19 111 40 86 118 131
228 130 110 -1 200 -56 297 -183 20 -27 43 -49 51 -49 17 0 172 117 179 136 3
7 -18 42 -46 78 -108 136 -222 218 -346 251 -73 19 -202 18 -274 -1z"/>
<path d="M776 3361 c-8 -12 540 -1949 556 -1968 13 -17 53 -17 65 0 6 6 135
326 288 710 154 383 282 697 285 697 4 0 129 -314 280 -697 150 -384 277 -704
283 -710 12 -17 52 -17 65 0 17 20 572 1961 563 1970 -4 4 -59 6 -122 5 l-114
-3 -191 -663 c-105 -364 -193 -664 -196 -667 -2 -3 -123 297 -268 665 l-263
670 -38 0 -37 0 -256 -642 c-140 -354 -260 -656 -266 -672 -6 -16 -13 -27 -15
-24 -3 3 -90 304 -193 669 l-189 664 -116 3 c-67 1 -118 -1 -121 -7z"/>
<path d="M3397 3363 c-10 -9 -8 -1956 1 -1971 6 -9 37 -12 118 -10 l109 3 3
993 2 992 -113 0 c-63 0 -117 -3 -120 -7z"/>
<path d="M3975 3358 c-3 -7 -4 -454 -3 -993 l3 -980 490 0 490 0 3 109 c2 81
-1 112 -10 118 -7 4 -176 8 -375 8 l-363 0 0 875 0 875 -115 0 c-83 0 -117 -3
-120 -12z"/>
<path d="M5155 3358 c-3 -7 -4 -454 -3 -993 l3 -980 490 0 490 0 3 109 c2 81
-1 112 -10 118 -7 4 -176 8 -375 8 l-363 0 0 875 0 875 -115 0 c-83 0 -117 -3
-120 -12z"/>
</g>
</svg>
